<?xml version="1.0" standalone="no"?>
<!DOCTYPE svg PUBLIC "-//W3C//DTD SVG 20010904//EN"
 "http://www.w3.org/TR/2001/REC-SVG-20010904/DTD/svg10.dtd">
<svg version="1.0" xmlns="http://www.w3.org/2000/svg"
 width="2624.000000pt" height="2624.000000pt" viewBox="0 0 2624.000000 2624.000000"
 preserveAspectRatio="xMidYMid meet">
<metadata>
Created by potrace 1.14, written by Peter Selinger 2001-2017
</metadata>
<g transform="translate(0.000000,2624.000000) scale(0.100000,-0.100000)"
fill="#000000" stroke="none">
<path d="M8258 17085 c-2 -2 -17 -6 -33 -9 -17 -2 -30 -5 -30 -6 0 -1 -8 -3
-17 -5 -46 -9 -128 -56 -168 -98 -57 -59 -72 -77 -65 -77 4 0 -3 -13 -14 -29
-12 -16 -21 -35 -21 -43 0 -8 -5 -19 -12 -26 -7 -7 -9 -12 -6 -12 4 0 -4 -30
-18 -67 -13 -38 -40 -113 -58 -168 -19 -55 -43 -124 -55 -152 -11 -29 -18 -53
-15 -53 4 0 1 -6 -5 -13 -6 -8 -8 -17 -4 -20 3 -4 1 -7 -5 -7 -7 0 -11 -3 -10
-7 3 -14 -26 -98 -37 -105 -5 -4 -7 -8 -3 -8 6 0 -39 -142 -62 -195 -7 -16
-19 -51 -25 -75 -1 -3 -4 -12 -8 -20 -3 -8 -22 -62 -42 -120 -20 -58 -41 -117
-47 -132 -5 -15 -10 -30 -9 -33 1 -3 -5 -19 -14 -35 -8 -16 -14 -33 -13 -37 1
-4 -6 -23 -15 -40 -10 -18 -18 -36 -18 -40 0 -17 -12 -59 -19 -68 -5 -5 -12
-26 -18 -45 -12 -42 -94 -280 -152 -440 -23 -63 -42 -119 -43 -125 -2 -5 -6
-16 -10 -22 -5 -7 -5 -13 -1 -13 3 0 2 -6 -3 -12 -6 -7 -14 -26 -18 -43 -10
-36 -10 -36 -18 -55 -7 -14 -105 -294 -111 -315 -2 -5 -8 -22 -14 -36 -6 -15
-12 -35 -14 -45 -2 -11 -5 -21 -8 -24 -3 -3 -18 -43 -33 -90 -15 -47 -39 -114
-52 -150 -13 -36 -49 -139 -80 -230 -110 -318 -137 -395 -145 -415 -5 -11 -23
-60 -39 -110 -17 -49 -39 -114 -50 -142 -11 -29 -17 -53 -14 -53 3 0 1 -6 -4
-12 -6 -7 -38 -96 -73 -198 -34 -102 -68 -198 -75 -215 -7 -16 -27 -75 -46
-130 -18 -55 -37 -102 -41 -103 -5 -2 -5 -8 -2 -13 3 -6 0 -16 -6 -24 -7 -8
-10 -15 -6 -15 4 0 0 -13 -9 -30 -9 -16 -13 -30 -9 -30 4 0 2 -6 -4 -12 -6 -7
-10 -15 -11 -18 0 -3 -2 -12 -5 -20 -3 -8 -22 -62 -41 -120 -20 -58 -39 -112
-42 -120 -3 -8 -7 -17 -8 -20 -4 -19 -29 -87 -34 -95 -3 -5 -7 -17 -8 -25 -1
-8 -25 -78 -54 -155 -28 -77 -55 -156 -60 -175 -6 -19 -16 -51 -24 -70 -14
-35 -215 -606 -219 -625 -2 -5 -9 -23 -15 -40 -7 -16 -14 -38 -16 -47 -2 -9
-9 -26 -15 -37 -6 -12 -8 -21 -4 -21 3 0 1 -7 -6 -15 -7 -8 -10 -15 -6 -15 4
0 0 -13 -9 -30 -9 -16 -13 -30 -10 -30 3 0 0 -10 -7 -22 -6 -13 -13 -27 -14
-33 -1 -5 -16 -47 -33 -92 -16 -46 -27 -83 -24 -83 3 0 1 -6 -5 -12 -18 -22
-46 -131 -47 -181 -2 -108 71 -193 180 -212 53 -9 153 -10 161 -2 4 3 15 2 25
-3 12 -7 20 -7 24 0 4 7 12 7 25 0 13 -7 21 -7 25 0 4 7 12 7 25 0 13 -7 21
-7 25 0 4 7 12 7 25 0 13 -7 21 -7 25 0 4 7 12 7 25 0 13 -7 21 -7 25 0 4 7
12 7 25 0 13 -7 21 -7 25 0 4 7 12 7 25 0 13 -7 21 -7 25 0 4 7 12 7 25 0 12
-6 21 -7 25 0 3 6 15 6 30 0 15 -6 27 -6 30 0 4 7 13 6 25 0 13 -7 21 -7 25 0
4 6 12 7 23 1 9 -5 26 -5 39 0 14 5 23 5 23 -1 0 -6 9 -6 25 0 15 6 26 6 30 0
4 -6 13 -7 23 -1 11 6 24 6 34 0 11 -6 19 -6 23 1 4 6 11 8 16 4 15 -9 79 -11
79 -2 0 4 11 3 25 -2 15 -6 26 -6 30 0 4 7 13 6 25 0 12 -6 21 -7 25 0 4 6 15
6 30 0 15 -6 25 -6 25 0 0 5 12 5 30 0 18 -5 32 -5 35 1 4 5 14 5 25 -1 13 -7
21 -7 25 0 4 7 12 7 25 0 13 -7 21 -7 25 0 4 6 12 7 23 1 9 -5 26 -5 39 0 14
5 23 5 23 -1 0 -6 9 -6 25 0 15 6 26 6 30 0 4 -6 13 -7 23 -1 11 6 24 6 34 0
11 -6 19 -6 23 1 4 6 11 8 16 4 15 -9 79 -11 79 -2 0 4 11 3 25 -2 15 -6 26
-6 30 0 4 7 13 6 25 0 12 -6 21 -7 25 0 4 6 15 6 30 0 15 -6 25 -6 25 0 0 5
12 5 30 0 18 -5 32 -5 36 1 3 5 12 6 21 0 9 -4 30 -5 48 -1 18 4 39 4 46 -1 7
-4 18 -5 23 -1 6 3 17 7 26 7 124 11 249 93 297 196 20 44 35 79 37 89 1 3 4
10 7 15 6 9 40 108 45 130 3 10 58 160 74 200 10 23 17 47 19 58 0 4 8 21 16
37 8 16 15 31 14 32 0 2 4 14 9 28 5 14 18 51 28 83 l18 57 950 1 c523 0 1017
0 1098 0 82 0 152 -2 157 -5 5 -3 12 -18 16 -33 3 -16 13 -41 20 -58 8 -16 21
-50 29 -75 30 -87 47 -135 66 -185 10 -27 42 -115 70 -195 77 -216 118 -278
215 -327 67 -35 99 -43 175 -49 36 -2 71 -6 78 -9 6 -2 12 0 12 5 0 6 9 6 25
0 16 -6 25 -6 25 0 0 6 9 6 25 0 16 -6 25 -6 25 0 0 6 9 6 25 0 15 -6 26 -6
30 0 4 7 13 6 25 0 13 -7 21 -7 25 0 4 7 12 7 25 0 12 -6 21 -7 25 0 3 6 15 6
30 0 15 -6 27 -6 30 0 4 7 13 6 25 0 13 -7 21 -7 25 0 4 7 12 7 25 0 13 -7 21
-7 25 0 4 6 13 7 23 1 11 -6 24 -6 34 0 11 6 19 6 23 -1 4 -7 12 -7 25 0 13 7
21 7 25 0 4 -7 14 -6 28 2 12 6 22 11 22 11 0 0 10 -5 22 -11 14 -8 24 -8 28
-2 3 5 15 6 28 1 13 -5 30 -5 39 0 11 6 19 5 23 -1 4 -7 12 -7 25 0 13 7 21 7
25 0 4 -7 12 -7 25 0 13 7 21 7 25 0 4 -7 12 -7 24 0 10 5 21 7 25 3 8 -8 76
-10 76 -1 0 4 14 3 30 -2 18 -5 30 -5 30 0 0 6 10 6 25 0 16 -6 25 -6 25 0 0
6 9 6 25 0 16 -6 25 -6 25 0 0 6 9 6 23 1 13 -5 30 -5 37 -1 8 5 18 6 23 3 14
-9 68 -10 73 -1 3 4 14 4 24 -2 13 -7 21 -7 25 0 4 7 12 7 25 0 13 -7 21 -7
25 0 4 6 13 7 23 1 11 -6 24 -6 34 0 11 6 19 6 23 -1 4 -7 12 -7 25 0 13 7 21
7 25 0 4 -6 12 -7 23 -1 9 5 26 5 39 0 13 -5 25 -4 28 1 4 7 13 6 25 0 13 -7
21 -7 25 0 4 7 12 7 25 0 13 -7 21 -7 25 0 4 6 13 7 23 1 11 -6 24 -6 34 0 11
6 19 6 23 -1 4 -7 12 -7 25 0 13 7 21 7 25 0 4 -6 11 -8 16 -4 6 3 27 7 47 9
47 3 70 12 107 43 38 32 87 97 78 106 -3 3 -2 6 4 6 15 0 6 111 -12 162 -9 24
-17 50 -19 58 -2 8 -11 33 -19 55 -8 22 -18 49 -23 60 -4 11 -8 26 -10 33 -1
8 -6 21 -10 30 -4 9 -8 22 -10 27 -2 8 -74 212 -99 280 -4 11 -11 31 -15 45
-4 14 -11 34 -16 45 -4 11 -8 26 -10 33 -1 8 -6 21 -10 30 -11 27 -83 229
-110 312 -14 41 -28 82 -31 90 -10 28 -84 235 -87 245 -2 6 -6 17 -9 25 -3 8
-18 51 -33 95 -73 215 -111 322 -122 341 -6 12 -9 24 -5 27 3 4 1 12 -5 19 -5
7 -15 29 -20 48 -6 19 -29 87 -52 150 -23 63 -43 122 -45 130 -6 19 -77 220
-99 280 -10 25 -22 63 -27 85 -6 21 -15 45 -20 51 -6 7 -12 25 -15 40 -3 15
-8 32 -12 38 -3 6 -7 16 -8 21 -1 6 -25 75 -54 155 -28 80 -54 154 -57 165 -2
11 -8 29 -13 40 -11 26 -23 58 -25 68 -2 4 -3 8 -5 10 -1 1 -3 9 -5 17 -2 8
-24 74 -50 145 -26 72 -55 155 -65 185 -30 90 -80 234 -90 255 -5 11 -14 38
-20 60 -11 39 -19 60 -40 108 -5 12 -12 31 -14 42 -2 11 -9 36 -17 55 -7 19
-12 38 -11 43 1 4 -3 7 -9 7 -5 0 -8 4 -4 10 3 5 1 17 -4 27 -10 18 -47 122
-91 253 -12 36 -24 72 -27 80 -3 8 -7 20 -9 25 -1 6 -20 60 -42 120 -23 61
-44 122 -48 138 -3 15 -10 30 -15 33 -5 3 -6 10 -3 16 4 6 2 13 -4 17 -5 3
-12 17 -13 31 -2 14 -6 27 -9 30 -3 3 -21 52 -40 110 -18 58 -37 110 -40 115
-4 6 -17 44 -30 85 -13 41 -26 80 -30 85 -4 6 -10 22 -14 37 -3 15 -11 40 -18
55 -6 15 -12 30 -13 33 -4 19 -28 89 -35 105 -5 11 -27 74 -50 140 -22 66 -42
126 -45 133 -2 7 -5 16 -6 20 -1 4 -6 18 -11 32 -6 14 -34 95 -64 180 -30 85
-57 162 -61 170 -3 8 -7 20 -8 25 -7 29 -113 327 -119 333 -3 3 -6 11 -6 18 0
7 -5 25 -11 41 -6 15 -11 30 -11 33 0 6 -34 68 -51 94 -39 60 -152 139 -215
151 -15 3 -41 9 -58 14 -27 8 -2418 13 -2426 6z m1209 -2370 c4 -21 9 -37 16
-55 9 -25 30 -95 29 -97 -1 -2 5 -21 13 -43 8 -22 12 -40 8 -40 -3 0 -1 -6 4
-12 9 -11 20 -45 29 -84 1 -7 11 -38 22 -70 26 -76 53 -163 57 -189 2 -11 13
-44 24 -72 10 -29 18 -53 16 -53 -2 0 3 -16 11 -35 8 -19 12 -35 9 -35 -4 0
-3 -6 2 -12 4 -7 8 -15 8 -18 1 -3 13 -44 28 -92 16 -48 30 -95 32 -105 2 -10
13 -42 24 -70 10 -29 17 -53 14 -53 -3 0 0 -6 6 -13 6 -8 8 -16 6 -19 -3 -3 3
-28 14 -57 12 -28 18 -51 14 -51 -4 0 -2 -5 5 -12 7 -7 12 -22 12 -35 0 -13 5
-23 11 -23 5 0 7 -4 4 -10 -3 -5 -3 -16 2 -22 4 -7 8 -19 9 -26 5 -28 38 -128
47 -139 5 -7 7 -19 4 -28 -4 -8 -2 -17 4 -20 5 -4 7 -11 4 -16 -4 -5 -1 -9 5
-9 7 0 10 -7 6 -15 -3 -8 0 -15 6 -15 6 0 9 -3 6 -6 -3 -3 9 -52 27 -110 l33
-104 -580 0 c-549 0 -580 1 -573 18 4 9 8 22 9 27 11 43 20 72 25 80 3 6 6 15
8 20 6 30 14 58 38 135 15 47 30 97 35 113 5 15 6 27 3 27 -3 0 -1 6 4 13 5 6
17 39 27 72 9 33 21 74 27 90 6 17 12 39 14 49 5 22 24 84 32 106 7 17 10 28
17 55 2 11 17 58 31 105 15 47 28 92 30 100 2 8 4 16 4 18 1 1 1 3 1 5 0 1 9
29 20 62 12 33 23 67 25 76 3 16 36 124 97 324 17 55 32 107 33 115 1 8 5 22
8 30 3 8 11 33 17 55 6 22 14 47 17 55 3 8 7 20 9 27 1 7 10 35 19 63 16 49
25 56 32 25z"/>
<path d="M13778 17072 c-44 -21 -118 -83 -118 -99 0 -7 -4 -13 -8 -13 -21 0
-20 -133 2 -200 9 -30 18 -62 19 -70 2 -8 6 -20 9 -26 4 -6 10 -24 13 -40 8
-38 13 -58 15 -61 3 -3 3 -5 14 -48 5 -16 17 -57 28 -90 11 -33 21 -69 24 -80
5 -28 53 -184 66 -217 5 -15 7 -32 3 -37 -3 -6 -1 -11 4 -11 6 0 11 -9 11 -21
0 -11 5 -29 10 -39 6 -10 11 -30 12 -44 1 -15 6 -26 10 -26 4 0 7 -3 6 -7 -1
-9 10 -59 19 -83 4 -8 14 -42 24 -75 9 -33 25 -85 34 -115 9 -30 18 -62 20
-70 2 -8 15 -53 30 -100 14 -47 28 -94 30 -105 3 -11 17 -58 31 -104 14 -47
28 -92 29 -100 2 -9 4 -16 5 -16 1 0 3 -8 6 -17 7 -30 11 -42 17 -58 4 -8 8
-24 10 -35 1 -11 6 -26 10 -32 5 -7 5 -13 1 -13 -3 0 -2 -6 4 -13 6 -7 13 -30
16 -50 2 -20 7 -41 11 -47 4 -6 15 -39 25 -73 10 -34 37 -125 60 -202 23 -77
48 -165 56 -195 8 -30 21 -72 29 -92 8 -21 13 -38 10 -38 -3 0 2 -17 9 -37 8
-21 22 -65 32 -98 10 -33 18 -62 19 -65 1 -3 5 -22 9 -43 5 -20 12 -40 17 -43
5 -3 7 -10 3 -15 -3 -5 0 -16 6 -24 7 -8 9 -15 5 -15 -4 0 -2 -6 4 -14 6 -8
11 -18 10 -22 -1 -5 0 -16 3 -24 3 -8 12 -40 21 -70 9 -30 22 -73 29 -95 6
-22 13 -44 14 -50 2 -5 12 -41 24 -80 12 -38 23 -79 26 -90 3 -11 6 -24 8 -30
2 -5 6 -23 11 -40 4 -16 12 -36 18 -42 5 -7 7 -13 3 -13 -3 0 -1 -11 4 -25 5
-14 12 -36 15 -48 2 -12 16 -60 31 -107 39 -128 85 -283 89 -301 2 -8 11 -40
20 -70 22 -72 57 -192 59 -204 1 -5 5 -16 10 -23 4 -7 5 -16 2 -19 -3 -3 -2
-11 3 -17 10 -13 36 -108 33 -118 -1 -5 2 -8 6 -8 5 0 9 -6 10 -12 1 -15 10
-53 12 -53 1 0 3 -7 5 -15 6 -30 48 -176 56 -195 11 -28 29 -88 34 -113 2 -11
8 -29 14 -40 6 -11 8 -22 5 -25 -3 -3 0 -15 6 -27 6 -12 13 -29 15 -38 1 -9 8
-35 14 -57 6 -22 10 -42 10 -45 0 -3 5 -18 11 -35 12 -29 48 -145 55 -175 1
-8 13 -44 24 -80 12 -36 23 -76 26 -88 3 -12 7 -32 10 -44 2 -13 9 -32 14 -43
8 -17 18 -52 27 -91 2 -11 40 -136 94 -314 11 -36 20 -73 20 -82 0 -10 5 -18
11 -18 5 0 7 -5 4 -10 -4 -6 -1 -17 5 -25 6 -8 9 -19 6 -24 -4 -5 -2 -12 4
-16 6 -4 8 -11 5 -16 -4 -5 -2 -9 2 -9 5 0 9 -8 10 -17 1 -21 1 -20 53 -193
22 -74 42 -142 44 -150 9 -48 71 -231 90 -265 71 -133 185 -205 349 -221 28
-3 54 -7 59 -10 4 -3 8 -1 8 5 0 7 8 7 25 1 16 -6 25 -6 25 0 0 6 9 6 25 0 16
-6 25 -6 25 0 0 6 9 6 25 0 15 -6 26 -6 30 0 4 7 13 6 25 0 13 -7 21 -7 25 0
4 7 12 7 25 0 10 -6 21 -6 24 -1 6 9 48 7 65 -3 5 -4 12 -2 16 3 3 6 15 7 28
2 13 -5 30 -5 39 0 11 6 19 5 23 -1 4 -7 12 -7 25 0 13 7 21 7 25 0 4 -7 12
-7 25 0 13 7 21 7 25 0 4 -7 12 -7 24 0 10 5 21 7 25 3 8 -8 76 -10 76 -1 0 4
14 3 30 -2 18 -5 30 -5 30 0 0 6 10 6 25 0 16 -6 25 -6 25 0 0 6 9 6 25 0 16
-6 25 -6 25 0 0 6 9 6 23 1 13 -5 30 -5 37 -1 8 5 18 6 23 3 14 -9 68 -10 73
-1 3 4 14 4 24 -2 13 -7 21 -7 25 0 4 7 12 7 25 0 13 -7 21 -7 25 0 4 6 13 7
23 1 11 -6 24 -6 34 0 11 6 19 6 23 -1 4 -7 12 -7 25 0 13 7 21 7 25 0 4 -6
13 -7 23 -2 19 9 54 8 70 -2 6 -3 13 -2 17 4 4 7 12 7 25 0 13 -7 21 -7 25 0
4 6 12 7 23 1 9 -5 26 -5 39 0 13 5 25 4 28 -1 4 -7 13 -6 25 0 13 7 21 7 25
0 4 -7 12 -7 25 0 13 7 21 7 25 0 4 -6 13 -7 23 -1 11 6 24 6 34 0 11 -6 19
-6 23 1 4 7 12 7 25 0 13 -7 21 -7 25 0 4 7 12 7 25 0 13 -7 21 -7 25 0 4 7
12 7 25 0 13 -7 21 -7 25 0 4 7 12 7 25 0 12 -6 21 -7 25 0 3 6 15 6 30 0 15
-6 27 -6 30 0 4 7 13 6 25 0 13 -7 21 -7 25 0 4 6 12 7 23 1 9 -5 26 -5 39 0
14 5 23 5 23 -1 0 -6 9 -6 25 0 15 6 26 6 30 0 4 -6 13 -7 23 -1 11 6 24 6 34
0 11 -6 19 -6 23 1 4 7 12 7 25 0 13 -7 21 -7 25 0 4 7 12 7 25 0 13 -7 21 -7
25 0 4 7 12 7 25 0 13 -7 21 -7 25 0 4 7 12 7 24 0 10 -5 21 -7 24 -4 4 4 46
10 125 16 6 1 12 5 12 10 0 5 5 6 10 3 19 -12 124 49 176 101 51 50 109 145
97 158 -4 3 -1 6 6 6 8 0 11 7 7 15 -3 8 -1 15 5 15 6 0 7 5 4 10 -3 6 -3 16
2 23 4 6 8 17 9 22 2 6 20 70 43 144 22 74 38 138 35 143 -3 4 -1 8 4 8 4 0
14 24 22 53 7 28 24 85 37 126 13 41 25 84 27 95 3 12 19 68 37 126 17 58 32
110 34 115 1 6 5 17 8 25 5 14 44 148 52 180 2 8 4 16 5 18 3 2 3 2 14 52 5
19 12 40 16 45 5 6 9 13 9 18 2 18 16 72 57 207 24 80 45 154 47 165 1 11 5
25 9 30 3 6 9 26 13 45 4 19 10 40 13 45 4 6 7 15 9 20 1 6 13 48 27 94 13 47
23 88 20 92 -2 4 0 9 6 11 5 1 11 14 14 28 2 14 5 25 6 25 1 0 4 8 14 50 2 11
9 32 15 48 6 15 8 27 5 27 -4 0 -1 7 6 15 7 8 10 15 7 15 -4 0 1 19 9 43 14
38 50 160 59 197 2 8 8 26 13 40 5 14 10 27 10 30 0 3 6 25 13 50 7 25 13 48
15 53 1 4 2 8 4 10 1 1 3 9 5 17 2 8 24 85 50 170 25 85 48 162 50 170 2 8 4
15 5 15 1 0 3 7 5 15 2 8 7 26 10 40 3 14 7 30 9 37 1 7 5 16 9 19 4 4 7 18 7
31 0 13 5 23 11 23 5 0 8 4 5 8 -3 5 2 31 10 58 9 27 17 56 19 64 5 20 92 311
112 375 8 28 16 55 17 60 2 6 9 30 16 55 7 25 15 50 16 55 13 48 116 397 124
420 6 17 13 37 15 45 3 15 45 159 68 235 6 22 12 42 12 45 0 3 4 11 8 18 5 6
5 17 2 22 -3 6 -2 10 3 10 5 0 9 6 10 13 1 17 7 41 32 122 11 39 32 107 46
152 14 45 27 92 29 103 2 11 6 24 9 28 3 5 7 19 10 33 2 13 11 43 20 67 8 23
15 44 16 47 0 5 1 9 5 23 1 4 5 21 10 37 4 17 18 64 31 105 23 75 102 341 109
370 2 8 22 78 45 155 23 77 43 145 45 150 1 6 5 17 8 25 4 8 8 24 10 35 2 11
7 28 11 37 4 9 9 22 10 30 1 7 9 33 16 58 7 25 14 50 16 55 1 6 19 66 39 135
67 223 75 253 69 261 -3 5 0 18 6 29 7 14 8 26 2 33 -5 7 -8 20 -7 30 4 24
-88 123 -136 146 -36 18 -88 19 -1064 18 -581 0 -1028 -3 -1031 -9 -3 -4 -9
-6 -14 -3 -10 6 -80 -18 -139 -47 -58 -30 -145 -128 -167 -189 -10 -27 -21
-49 -24 -49 -3 0 -6 -8 -7 -17 -1 -10 -16 -72 -33 -138 -18 -66 -33 -128 -33
-137 -1 -10 -4 -18 -7 -18 -4 0 -7 -6 -7 -12 -2 -26 -11 -74 -16 -88 -4 -8
-14 -44 -22 -80 -9 -36 -18 -72 -20 -80 -2 -8 -16 -60 -30 -115 -36 -137 -42
-162 -49 -192 -2 -10 -12 -47 -21 -83 -9 -36 -19 -72 -20 -80 -2 -8 -4 -15 -5
-15 -1 0 -3 -7 -5 -15 -2 -8 -6 -26 -9 -40 -3 -14 -17 -70 -31 -125 -15 -55
-33 -129 -41 -165 -9 -36 -18 -72 -21 -80 -8 -19 -13 -40 -17 -66 -2 -11 -6
-26 -10 -32 -3 -6 -8 -23 -11 -39 -2 -15 -11 -55 -20 -88 -9 -33 -18 -70 -21
-82 -2 -12 -9 -34 -14 -48 -5 -14 -7 -25 -5 -25 2 0 0 -12 -6 -27 -6 -16 -13
-39 -15 -53 -3 -14 -7 -33 -10 -42 -3 -9 -7 -25 -9 -35 -2 -10 -9 -36 -15 -58
-6 -22 -13 -53 -16 -70 -3 -16 -10 -38 -15 -47 -5 -10 -7 -18 -5 -18 3 0 1
-11 -4 -25 -5 -14 -12 -36 -14 -48 -2 -12 -12 -51 -21 -87 -9 -36 -18 -72 -20
-80 -2 -8 -12 -48 -24 -89 -11 -41 -18 -77 -16 -82 3 -4 1 -10 -4 -13 -8 -5
-23 -67 -23 -93 0 -5 -4 -14 -10 -20 -6 -7 -7 -13 -3 -13 4 0 2 -7 -5 -15 -7
-8 -10 -15 -7 -15 3 0 -10 -60 -29 -132 -20 -73 -37 -142 -39 -153 -16 -75
-29 -122 -38 -132 -5 -7 -7 -13 -4 -13 3 0 -6 -41 -19 -92 -13 -51 -24 -100
-24 -110 0 -10 -4 -18 -9 -18 -5 0 -9 -10 -9 -22 0 -13 -19 -95 -42 -183 -23
-88 -43 -165 -44 -172 -3 -19 -16 -28 -17 -12 0 8 -2 21 -5 29 -2 8 -8 33 -13
55 -5 22 -19 76 -31 120 -11 44 -23 91 -26 105 -3 14 -9 39 -14 55 -10 32 -68
256 -76 290 -2 11 -7 33 -10 49 -2 16 -7 33 -10 38 -3 5 -7 21 -10 36 -3 15
-7 34 -11 42 -3 8 -8 23 -10 34 -2 10 -15 64 -29 120 -14 55 -27 108 -29 117
-2 8 -10 39 -19 67 -8 29 -12 52 -9 52 3 0 0 7 -7 15 -7 8 -10 22 -6 30 3 8 1
15 -5 15 -6 0 -9 6 -6 14 3 8 3 17 -1 21 -4 4 -8 11 -8 16 -1 5 -2 10 -4 12
-1 1 -3 11 -5 22 -5 28 -35 147 -95 375 -28 107 -53 204 -54 215 -2 11 -16 65
-31 120 -15 55 -28 107 -30 115 -2 8 -11 44 -20 80 -23 87 -26 102 -30 125 -2
11 -4 20 -5 20 -1 0 -4 9 -6 20 -8 34 -12 50 -14 50 -1 0 -3 7 -14 50 -2 11
-9 40 -15 65 -7 25 -14 56 -17 68 -6 29 -29 115 -43 160 -5 17 -8 32 -6 32 3
0 0 12 -6 28 -6 15 -13 39 -15 53 -2 14 -10 46 -18 70 -8 24 -17 58 -20 74 -2
17 -5 31 -6 33 -2 1 -4 7 -5 12 -1 6 -3 11 -5 13 -1 1 -3 11 -5 22 -1 11 -7
38 -13 60 -8 33 -56 214 -66 250 -2 6 -7 28 -11 50 -11 49 -10 47 -17 65 -4 8
-12 38 -18 65 -7 28 -13 57 -15 65 -36 150 -79 238 -149 303 -42 39 -122 86
-160 93 -12 2 -32 7 -46 11 -14 3 -486 7 -1051 9 -935 2 -1028 1 -1061 -14z"/>
<path d="M4687 16944 c-1 -1 -15 -5 -31 -8 -23 -4 -119 -57 -136 -76 -3 -3
-17 -11 -32 -19 -16 -8 -28 -18 -28 -23 0 -4 -7 -8 -15 -8 -8 0 -15 -4 -15
-10 0 -5 -7 -10 -15 -10 -8 0 -15 -3 -15 -8 0 -4 -9 -12 -20 -17 -19 -9 -208
-136 -543 -364 -81 -56 -150 -101 -153 -101 -3 0 -12 -6 -19 -12 -8 -7 -20
-17 -27 -23 -31 -24 -430 -291 -448 -300 -11 -5 -20 -13 -20 -17 0 -5 -7 -8
-15 -8 -8 0 -15 -4 -15 -10 0 -5 -6 -10 -13 -10 -8 0 -22 -9 -32 -20 -10 -11
-22 -17 -26 -14 -5 3 -9 1 -9 -4 0 -5 -24 -24 -52 -42 -29 -19 -54 -38 -56
-42 -2 -4 -8 -8 -13 -8 -12 0 -132 -82 -137 -92 -2 -5 -9 -8 -15 -8 -7 0 -25
-11 -40 -24 -15 -13 -52 -39 -82 -57 -30 -18 -55 -37 -55 -41 0 -4 -5 -8 -11
-8 -10 0 -91 -53 -116 -77 -7 -6 -22 -15 -33 -18 -11 -3 -20 -11 -20 -16 0 -5
-7 -9 -15 -9 -8 0 -15 -4 -15 -10 0 -5 -5 -10 -10 -10 -10 0 -67 -37 -80 -50
-3 -4 -39 -28 -80 -55 -41 -27 -78 -54 -82 -60 -5 -6 -8 -6 -8 0 0 6 -3 6 -8
0 -7 -10 -37 -32 -205 -143 -44 -30 -86 -60 -94 -68 -8 -8 -21 -14 -29 -14 -8
0 -14 -4 -14 -8 0 -5 -16 -17 -35 -28 -19 -10 -35 -22 -35 -26 0 -5 -5 -8 -11
-8 -6 0 -25 -11 -43 -25 -18 -14 -38 -25 -44 -25 -7 0 -12 -4 -12 -8 0 -4 -15
-16 -33 -27 -17 -10 -34 -21 -37 -24 -3 -3 -52 -37 -110 -76 -58 -38 -107 -72
-110 -75 -3 -3 -17 -11 -32 -19 -16 -8 -28 -18 -28 -23 0 -4 -5 -8 -11 -8 -6
0 -28 -13 -49 -30 -21 -16 -43 -30 -49 -30 -6 0 -11 -4 -11 -10 0 -5 -7 -10
-15 -10 -9 0 -18 -7 -21 -15 -4 -8 -10 -12 -15 -9 -5 3 -9 0 -9 -5 0 -6 -7
-11 -15 -11 -8 0 -15 -4 -15 -10 0 -5 -6 -10 -14 -10 -8 0 -16 -4 -18 -8 -3
-9 -224 -160 -258 -177 -11 -5 -20 -13 -20 -17 0 -5 -7 -8 -15 -8 -8 0 -15 -4
-15 -10 0 -5 -6 -10 -14 -10 -8 0 -16 -3 -18 -7 -2 -5 -56 -43 -120 -86 -64
-43 -128 -89 -143 -103 -14 -13 -28 -24 -31 -24 -6 0 -81 -82 -100 -109 -32
-46 -60 -106 -68 -151 -1 -3 -4 -9 -7 -15 -12 -21 -2 -549 11 -598 15 -58 72
-148 128 -202 75 -73 101 -95 111 -95 6 0 11 -5 11 -11 0 -5 4 -8 9 -5 5 4 11
2 13 -2 4 -11 196 -142 207 -142 5 0 11 -3 13 -8 2 -4 59 -45 128 -92 69 -46
153 -103 188 -127 35 -24 65 -43 68 -43 3 0 14 -9 26 -20 12 -11 27 -20 34
-20 6 0 14 -7 18 -15 3 -8 12 -15 19 -15 8 0 22 -9 32 -20 10 -11 22 -20 26
-20 7 0 141 -88 166 -110 7 -5 15 -10 18 -10 4 0 13 -6 20 -12 33 -29 45 -38
53 -38 5 0 17 -9 27 -20 10 -11 20 -18 23 -16 2 3 13 -3 23 -13 11 -10 32 -24
47 -32 15 -8 29 -17 32 -20 3 -3 95 -66 205 -140 110 -74 202 -137 203 -141 2
-5 9 -8 16 -8 7 0 21 -9 31 -20 10 -11 23 -20 30 -20 7 0 20 -9 30 -20 10 -11
24 -20 31 -20 7 0 14 -3 16 -8 3 -7 359 -250 406 -277 9 -5 19 -12 22 -16 8
-8 161 -109 167 -109 2 0 11 -6 18 -12 35 -31 45 -38 45 -31 0 4 5 0 11 -9 5
-10 16 -18 24 -18 7 0 15 -3 17 -7 5 -11 125 -93 137 -93 5 0 11 -3 13 -7 4
-10 215 -153 226 -153 4 0 14 -9 22 -20 8 -11 18 -20 22 -20 11 0 222 -142
226 -152 2 -5 8 -8 14 -8 6 0 27 -13 48 -30 21 -16 43 -30 49 -30 6 0 11 -4
11 -10 0 -5 7 -10 15 -10 8 0 15 -3 15 -8 0 -4 9 -12 20 -17 11 -6 67 -43 125
-82 58 -40 109 -73 114 -73 5 0 11 -4 13 -8 2 -7 381 -267 446 -307 9 -6 57
-37 106 -69 85 -57 91 -59 155 -59 109 -1 184 55 209 158 3 11 5 414 6 895 1
996 7 923 -87 1058 -56 82 -105 120 -312 245 -10 7 -52 33 -93 60 -40 26 -78
47 -83 47 -5 0 -9 3 -9 8 0 4 -17 16 -37 27 -21 11 -40 22 -43 25 -7 7 -43 29
-60 37 -8 4 -17 10 -20 13 -3 4 -27 20 -55 36 -27 15 -54 32 -60 37 -5 5 -64
42 -130 82 -66 41 -125 79 -132 84 -7 6 -15 11 -18 11 -3 0 -33 18 -66 40 -33
22 -64 40 -68 40 -5 0 -14 7 -21 15 -7 8 -32 25 -56 37 -24 12 -44 25 -44 30
0 4 -6 8 -13 8 -7 0 -22 7 -32 15 -30 22 -175 115 -181 115 -3 0 -17 8 -32 19
-96 66 -151 99 -156 94 -3 -4 -6 -1 -6 5 0 6 -17 19 -37 29 -21 9 -42 21 -48
25 -5 5 -21 17 -34 28 -13 11 -28 20 -32 20 -11 0 -103 62 -107 72 -2 4 -12 8
-23 8 -26 0 -24 17 4 31 12 7 52 32 89 55 37 24 72 44 77 44 6 0 11 5 11 10 0
6 4 10 9 10 6 0 30 14 54 30 25 17 48 30 51 30 4 0 12 5 19 11 30 26 146 96
151 91 3 -3 6 0 6 6 0 7 7 12 15 12 8 0 15 5 15 10 0 6 7 10 15 10 8 0 15 4
15 9 0 5 8 11 18 14 23 8 76 40 80 50 2 4 9 7 16 7 7 0 21 9 31 20 10 11 23
20 28 20 5 0 40 20 78 45 38 25 73 45 78 45 5 0 11 4 13 9 2 4 22 19 44 32
106 61 189 114 192 121 2 5 10 8 18 8 8 0 14 5 14 10 0 6 4 10 9 10 6 0 78 43
161 95 83 52 153 95 156 95 2 0 27 16 54 35 27 19 54 35 60 35 5 0 10 4 10 9
0 5 10 13 23 16 12 4 36 18 54 31 17 13 34 24 38 24 3 0 11 5 18 10 7 6 47 33
89 60 141 90 235 203 269 321 10 34 13 244 14 919 1 927 1 919 -44 974 -25 30
-93 76 -102 70 -5 -3 -9 -2 -9 3 0 7 -76 14 -83 7z"/>
<path d="M21574 16938 c-3 -5 -13 -8 -22 -8 -21 0 -87 -62 -110 -104 -16 -28
-17 -107 -19 -901 -1 -516 2 -892 8 -924 5 -30 18 -72 29 -93 11 -21 17 -38
13 -38 -3 0 4 -8 15 -19 12 -10 22 -22 22 -26 0 -12 104 -116 130 -130 14 -7
39 -25 55 -39 17 -14 36 -26 43 -26 6 0 12 -4 12 -8 0 -4 20 -18 45 -30 25
-12 45 -26 45 -32 0 -5 3 -9 8 -8 6 2 56 -27 161 -94 14 -9 37 -23 51 -31 26
-14 359 -222 420 -262 19 -12 141 -88 270 -168 129 -80 240 -150 246 -155 6
-5 20 -13 32 -16 12 -4 22 -11 22 -16 0 -5 9 -11 19 -15 11 -3 53 -28 95 -55
41 -28 80 -50 85 -50 6 0 11 -4 11 -8 0 -5 12 -14 27 -21 14 -7 49 -27 77 -45
28 -18 79 -51 113 -73 48 -30 60 -42 51 -51 -7 -7 -16 -12 -21 -12 -4 0 -35
-18 -67 -40 -32 -22 -63 -40 -68 -40 -5 0 -17 -9 -27 -20 -10 -11 -24 -20 -30
-20 -7 0 -18 -7 -25 -15 -7 -8 -16 -13 -20 -10 -5 3 -10 2 -12 -2 -4 -11 -116
-83 -127 -83 -5 0 -11 -4 -13 -8 -1 -4 -25 -21 -53 -37 -27 -16 -54 -32 -60
-37 -24 -20 -137 -88 -145 -88 -6 0 -10 -4 -10 -10 0 -5 -7 -10 -15 -10 -8 0
-15 -4 -15 -9 0 -5 -8 -12 -17 -15 -21 -7 -32 -14 -131 -79 -40 -26 -77 -47
-82 -47 -6 0 -10 -3 -10 -8 0 -4 -9 -12 -20 -17 -40 -20 -195 -119 -198 -127
-2 -5 -8 -6 -13 -2 -5 3 -9 0 -9 -5 0 -6 -4 -11 -9 -11 -4 0 -48 -26 -97 -58
-49 -32 -96 -61 -104 -65 -8 -4 -42 -25 -75 -46 -33 -22 -91 -59 -130 -82 -38
-24 -74 -47 -80 -51 -17 -14 -135 -88 -141 -88 -2 0 -35 -20 -72 -45 -74 -49
-140 -127 -181 -214 l-26 -56 0 -910 0 -910 27 -46 c55 -94 156 -127 266 -87
28 11 52 24 52 29 0 5 5 9 10 9 6 0 33 16 60 35 27 19 52 35 56 35 3 0 12 6
19 13 25 22 39 31 110 77 39 25 75 48 80 53 33 26 158 107 165 107 5 0 10 4
12 8 3 7 111 83 173 122 66 41 260 176 263 182 2 5 8 8 14 8 5 0 24 11 42 25
18 14 38 25 43 25 6 0 13 7 17 15 3 8 12 15 21 15 8 0 15 4 15 9 0 5 9 13 20
16 11 3 26 12 33 19 7 7 43 32 80 55 37 24 67 47 67 52 0 5 3 8 8 7 8 -2 54
21 62 32 9 11 291 200 300 200 4 0 10 4 12 8 2 5 95 70 208 145 113 75 210
141 216 146 9 8 71 49 113 76 8 6 20 15 27 20 6 6 31 22 55 37 73 46 84 53 89
58 6 6 322 219 348 235 9 6 19 12 22 15 3 3 39 27 80 54 41 27 85 59 98 70 12
11 22 16 22 12 0 -4 7 -1 15 6 28 25 44 38 49 38 8 0 201 134 204 142 2 4 8 8
14 8 11 0 161 101 166 113 2 4 9 7 16 7 7 0 21 9 31 20 10 11 22 20 27 20 8 0
66 37 78 50 3 3 39 28 80 55 41 26 77 52 78 57 2 4 8 6 13 2 5 -3 9 0 9 5 0 6
7 11 15 11 8 0 15 5 15 10 0 6 12 16 28 23 15 6 36 20 46 29 11 10 23 18 27
18 4 0 14 6 21 13 7 7 41 30 75 52 35 22 63 43 63 48 0 4 5 7 10 7 12 0 73 41
78 53 2 4 8 7 14 7 11 0 54 38 115 102 45 47 104 144 108 177 2 15 4 26 5 26
7 0 11 62 13 183 1 78 -2 142 -7 142 -5 0 -4 6 1 13 5 6 8 60 7 119 -2 126
-21 199 -75 279 -39 58 -147 164 -186 182 -13 6 -23 14 -23 19 0 4 -5 8 -11 8
-9 0 -79 49 -119 82 -8 7 -17 12 -20 12 -3 -1 -33 18 -66 42 -34 24 -67 44
-73 44 -6 0 -11 3 -11 8 0 4 -31 27 -70 51 -38 24 -70 48 -70 53 0 4 -5 8 -12
8 -6 0 -26 11 -44 25 -18 14 -37 25 -42 25 -6 0 -12 3 -14 8 -1 4 -50 39 -108
77 -58 39 -106 73 -108 78 -2 4 -10 7 -18 7 -8 0 -14 5 -14 10 0 6 -5 10 -11
10 -6 0 -28 14 -49 30 -21 17 -42 30 -48 30 -6 0 -12 3 -14 8 -1 4 -64 48
-138 97 -74 50 -137 92 -140 95 -3 3 -39 27 -80 54 -41 27 -76 53 -78 58 -2 4
-8 8 -12 8 -12 0 -104 62 -108 72 -2 4 -9 8 -16 8 -7 0 -21 9 -31 20 -10 11
-22 20 -26 20 -8 0 -149 96 -175 119 -7 5 -15 7 -18 4 -3 -4 -6 -1 -6 5 0 7
-6 12 -13 12 -8 0 -22 9 -32 20 -10 11 -24 20 -31 20 -7 0 -14 3 -16 8 -1 4
-59 45 -128 92 -69 46 -126 87 -128 92 -2 4 -8 8 -14 8 -9 0 -96 56 -108 69
-3 3 -17 12 -32 20 -16 8 -28 18 -28 23 0 4 -7 8 -15 8 -8 0 -15 5 -15 10 0 6
-6 10 -12 10 -7 0 -24 9 -38 20 -14 11 -43 32 -65 47 -227 151 -411 277 -413
284 -2 5 -10 9 -17 9 -8 0 -20 6 -27 13 -7 7 -30 23 -51 36 -21 13 -43 28 -50
35 -18 17 -67 47 -67 41 0 -3 -9 3 -19 13 -34 30 -50 42 -57 42 -4 0 -16 7
-26 17 -10 9 -26 21 -36 27 -54 32 -116 72 -126 81 -6 6 -51 37 -101 70 -49
33 -96 66 -103 72 -7 7 -19 13 -27 13 -7 0 -15 4 -17 8 -1 5 -100 74 -218 153
-118 79 -216 147 -218 152 -2 4 -8 7 -14 7 -6 0 -27 14 -48 30 -21 17 -43 30
-49 30 -6 0 -11 4 -11 8 0 8 -14 12 -52 13 -10 0 -18 4 -18 8 0 9 -90 8 -96
-1z"/>
</g>
</svg>
