<svg fill="none" xmlns="http://www.w3.org/2000/svg" viewBox="0 0 221 42">
  <g clip-path="url(#a)">
    <path d="M.8 23.84v-1.68c0-.613.387-1.173 1.16-1.68l16-10.8a.916.916 0 0 1 .48-.12c.213 0 .4.08.56.24.16.16.24.36.24.6v6.48c0 .667-.427 1.253-1.28 1.76l-7 4.36 7 4.4c.267.16.453.28.56.36.133.08.28.253.44.52.187.24.28.52.28.84v6.48c0 .24-.08.44-.24.6a.768.768 0 0 1-.56.24.916.916 0 0 1-.48-.12l-16-10.8C1.187 25.013.8 24.453.8 23.84ZM32.61 9h8.68c.96 0 1.56.44 1.8 1.32l8.92 25.52c.027.08.04.213.04.4 0 .16-.093.333-.28.52-.16.16-.36.24-.6.24h-7.4c-.8 0-1.32-.333-1.56-1l-.96-2.64h-8.6L31.69 36c-.24.667-.76 1-1.56 1h-7.4a.956.956 0 0 1-.64-.24c-.16-.187-.24-.36-.24-.52 0-.187.013-.32.04-.4l8.92-25.52c.24-.88.84-1.32 1.8-1.32Zm2.08 16.56h4.52l-2.28-7.44-2.24 7.44ZM72.776 9h7.44c.24 0 .44.093.6.28.187.16.28.32.28.48 0 .16-.013.293-.04.4l-7.52 25.52c-.24.88-.84 1.32-1.8 1.32h-9.12c-.96 0-1.56-.44-1.8-1.32l-7.52-25.52a1.681 1.681 0 0 1-.04-.4c0-.16.08-.32.24-.48a.88.88 0 0 1 .64-.28h7.44c.96 0 1.56.44 1.8 1.32l3.8 14.88 3.8-14.88c.24-.88.84-1.32 1.8-1.32ZM83.08 31.04c0-3.6 2.92-5.907 8.76-6.92l4.24-.68c0-.8-.067-1.333-.2-1.6-.134-.293-.454-.44-.96-.44-.48 0-.96.213-1.44.64-.48.427-.934.64-1.36.64h-6.8c-.587 0-.88-.28-.88-.84 0-.587.2-1.2.6-1.84.426-.667 1.026-1.32 1.8-1.96.8-.64 1.906-1.173 3.32-1.6 1.44-.427 3.04-.64 4.8-.64 3.573 0 6.253.747 8.04 2.24 1.786 1.493 2.68 3.627 2.68 6.4v11.48c0 .293-.107.547-.32.76a1.04 1.04 0 0 1-.76.32h-7c-.294 0-.547-.107-.76-.32a1.038 1.038 0 0 1-.32-.76V34.8c-1.254 1.733-3.08 2.6-5.48 2.6-2.4 0-4.334-.6-5.8-1.8-1.44-1.227-2.16-2.747-2.16-4.56Zm10.52.44c1.733 0 2.6-1.04 2.6-3.12l-2.36.52c-1.174.267-1.76.76-1.76 1.48 0 .32.133.587.4.8.266.213.64.32 1.12.32Zm15.261-3.32V25c0-2.987.8-5.267 2.4-6.84 1.6-1.573 3.547-2.36 5.84-2.36 2.32 0 4.173.627 5.56 1.88v-8c0-.293.107-.547.32-.76.213-.213.467-.32.76-.32h7.4c.293 0 .547.107.76.32.213.213.32.467.32.76v26.24c0 .293-.107.547-.32.76-.213.213-.467.32-.76.32h-6.8c-.293 0-.547-.107-.76-.32a1.04 1.04 0 0 1-.32-.76v-1.2c-1.387 1.787-3.347 2.68-5.88 2.68s-4.587-.747-6.16-2.24c-1.573-1.52-2.36-3.853-2.36-7Zm13.8-.24v-2.96c-.08-1.333-.747-2-2-2-1.333 0-2 .773-2 2.32v2.64c0 1.547.667 2.32 2 2.32s2-.773 2-2.32ZM144.459 37h-7.16c-.294 0-.547-.107-.76-.32a1.036 1.036 0 0 1-.32-.76V17.28c0-.293.106-.547.32-.76.213-.213.466-.32.76-.32h7.16c.293 0 .546.107.76.32.213.213.32.467.32.76v18.64c0 .293-.107.547-.32.76a1.04 1.04 0 0 1-.76.32Zm.88-28.52v4.84c0 .293-.107.547-.32.76a1.04 1.04 0 0 1-.76.32h-6.76c-.294 0-.547-.107-.76-.32a1.036 1.036 0 0 1-.32-.76V8.48c0-.293.106-.547.32-.76.213-.213.466-.32.76-.32h6.76c.293 0 .546.107.76.32.213.213.32.467.32.76Zm25.32 20.48h-11.92v.2c0 1.627.52 2.44 1.56 2.44.293 0 .653-.213 1.08-.64.427-.427.893-.64 1.4-.64h7.56c.587 0 .88.293.88.88 0 1.307-.987 2.667-2.96 4.08-1.947 1.413-4.6 2.12-7.96 2.12-3.333 0-6.067-.867-8.2-2.6-2.107-1.76-3.16-4.173-3.16-7.24v-1.92c0-2.907 1.08-5.267 3.24-7.08 2.16-1.84 4.987-2.76 8.48-2.76 3.52 0 6.24 1.027 8.16 3.08 1.947 2.053 2.92 4.653 2.92 7.8v1.2c0 .293-.107.547-.32.76-.213.213-.467.32-.76.32Zm-8.72-5.16c0-1.6-.533-2.4-1.6-2.4-1.067 0-1.6.8-1.6 2.4v.16h3.2v-.16ZM189.165 37h-6.4c-.56 0-1-.333-1.32-1l-7.68-18.52a1.391 1.391 0 0 1-.04-.4c0-.187.093-.373.28-.56a.926.926 0 0 1 .68-.28h6.76c.64 0 1.08.32 1.32.96l3.2 9.28 3.2-9.32c.24-.64.68-.96 1.32-.96h6.76c.267 0 .493.093.68.28.187.187.28.373.28.56 0 .187-.013.32-.04.4L190.485 36c-.32.667-.76 1-1.32 1Zm30.064-14.84v1.68c0 .613-.387 1.173-1.16 1.68l-16 10.8a1 1 0 0 1-.52.12c-.187 0-.36-.08-.52-.24a.814.814 0 0 1-.24-.6v-6.48c0-.32.08-.6.24-.84.187-.267.333-.44.44-.52l.6-.36 7-4.4-7-4.36c-.853-.507-1.28-1.093-1.28-1.76V10.4c0-.24.08-.44.24-.6.16-.16.333-.24.52-.24a1 1 0 0 1 .52.12l16 10.8c.773.507 1.16 1.067 1.16 1.68Z" fill="#FDA30D"/>
  </g>
  <defs>
    <clipPath id="a">
      <path fill="#fff" d="M0 0h221v42H0z"/>
    </clipPath>
  </defs>
</svg>
